REM DIRINDEX 1\2\5,1\2\6,1\3\7,1\3\8,1\4\9,1\4\10
REM DIRNAME folder01,folder02,folder03,folder04,folder05,folder06,folder07,folder08,folder09,folder10
TITLE ""
FILE "Track40.mp3" MP3
  TRACK 01 AUDIO
    TITLE "10:cjc079_1686"
    INDEX 01 00:00:00
  TRACK 02 AUDIO
    TITLE "10:cjc079_1687"
    INDEX 01 00:05:42
  TRACK 03 AUDIO
    TITLE "9:cjc079_1688"
    INDEX 01 00:08:03
  TRACK 04 AUDIO
    TITLE "0:"
    INDEX 01 00:09:30
  TRACK 05 AUDIO
    TITLE "10:cjc079_1689"
    INDEX 01 00:10:43
  TRACK 06 AUDIO
    TITLE "9:cjc079_1690"
    INDEX 01 00:12:65
  TRACK 07 AUDIO
    TITLE "0:"
    INDEX 01 00:14:23
  TRACK 08 AUDIO
    TITLE "10:cjc079_1691"
    INDEX 01 00:15:28
  TRACK 09 AUDIO
    TITLE "9:cjc079_1692"
    INDEX 01 00:17:57
  TRACK 10 AUDIO
    TITLE "0:"
    INDEX 01 00:18:74
  TRACK 11 AUDIO
    TITLE "10:cjc079_1693"
    INDEX 01 00:20:10
  TRACK 12 AUDIO
    TITLE "9:cjc079_1694"
    INDEX 01 00:22:40
  TRACK 13 AUDIO
    TITLE "0:"
    INDEX 01 00:23:61
  TRACK 14 AUDIO
    TITLE "10:cjc079_1695"
    INDEX 01 00:24:72
  TRACK 15 AUDIO
    TITLE "9:cjc079_1696"
    INDEX 01 00:27:20
  TRACK 16 AUDIO
    TITLE "0:"
    INDEX 01 00:28:53
  TRACK 17 AUDIO
    TITLE "10:cjc079_1697"
    INDEX 01 00:29:64
  TRACK 18 AUDIO
    TITLE "9:cjc079_1698"
    INDEX 01 00:32:21
  TRACK 19 AUDIO
    TITLE "0:"
    INDEX 01 00:33:48
  TRACK 20 AUDIO
    TITLE "10:cjc079_1699"
    INDEX 01 00:34:57
  TRACK 21 AUDIO
    TITLE "9:cjc079_1700"
    INDEX 01 00:37:18
  TRACK 22 AUDIO
    TITLE "0:"
    INDEX 01 00:38:45
  TRACK 23 AUDIO
    TITLE "10:cjc079_1701"
    INDEX 01 00:39:56
  TRACK 24 AUDIO
    TITLE "9:cjc079_1702"
    INDEX 01 00:42:18
  TRACK 25 AUDIO
    TITLE "0:"
    INDEX 01 00:43:48
  TRACK 26 AUDIO
    TITLE "10:cjc079_1703"
    INDEX 01 00:44:60
  TRACK 27 AUDIO
    TITLE "9:cjc079_1704"
    INDEX 01 00:47:23
  TRACK 28 AUDIO
    TITLE "0:"
    INDEX 01 00:48:61
  TRACK 29 AUDIO
    TITLE "10:cjc079_1705"
    INDEX 01 00:49:72
  TRACK 30 AUDIO
    TITLE "9:cjc079_1706"
    INDEX 01 00:52:22
  TRACK 31 AUDIO
    TITLE "0:"
    INDEX 01 00:53:57
  TRACK 32 AUDIO
    TITLE "10:cjc079_1707"
    INDEX 01 00:54:68
  TRACK 33 AUDIO
    TITLE "9:cjc079_1708"
    INDEX 01 00:57:39
  TRACK 34 AUDIO
    TITLE "0:"
    INDEX 01 00:58:69
  TRACK 35 AUDIO
    TITLE "10:cjc079_1709"
    INDEX 01 01:00:02
  TRACK 36 AUDIO
    TITLE "9:cjc079_1710"
    INDEX 01 01:02:44
  TRACK 37 AUDIO
    TITLE "0:"
    INDEX 01 01:04:15
  TRACK 38 AUDIO
    TITLE "10:cjc079_1711"
    INDEX 01 01:05:24
  TRACK 39 AUDIO
    TITLE "9:cjc079_1712"
    INDEX 01 01:07:70
  TRACK 40 AUDIO
    TITLE "0:"
    INDEX 01 01:09:36
  TRACK 41 AUDIO
    TITLE "10:cjc079_1713"
    INDEX 01 01:10:43
  TRACK 42 AUDIO
    TITLE "9:cjc079_1714"
    INDEX 01 01:13:08
  TRACK 43 AUDIO
    TITLE "0:"
    INDEX 01 01:14:35
  TRACK 44 AUDIO
    TITLE "10:cjc079_1715"
    INDEX 01 01:15:44
  TRACK 45 AUDIO
    TITLE "9:cjc079_1716"
    INDEX 01 01:18:06
  TRACK 46 AUDIO
    TITLE "0:"
    INDEX 01 01:19:40
  TRACK 47 AUDIO
    TITLE "10:cjc079_1717"
    INDEX 01 01:20:48
  TRACK 48 AUDIO
    TITLE "9:cjc079_1718"
    INDEX 01 01:23:22
  TRACK 49 AUDIO
    TITLE "0:"
    INDEX 01 01:24:45
  TRACK 50 AUDIO
    TITLE "10:cjc079_1719"
    INDEX 01 01:25:53
  TRACK 51 AUDIO
    TITLE "9:cjc079_1720"
    INDEX 01 01:28:25
  TRACK 52 AUDIO
    TITLE "0:"
    INDEX 01 01:29:46
  TRACK 53 AUDIO
    TITLE "10:cjc079_1721"
    INDEX 01 01:30:56
  TRACK 54 AUDIO
    TITLE "9:cjc079_1722"
    INDEX 01 01:33:33
  TRACK 55 AUDIO
    TITLE "0:"
    INDEX 01 01:34:65
  TRACK 56 AUDIO
    TITLE "10:cjc079_1723"
    INDEX 01 01:35:71
  TRACK 57 AUDIO
    TITLE "9:cjc079_1724"
    INDEX 01 01:38:43
  TRACK 58 AUDIO
    TITLE "0:"
    INDEX 01 01:40:01
  TRACK 59 AUDIO
    TITLE "10:cjc079_1725"
    INDEX 01 01:41:10
  TRACK 60 AUDIO
    TITLE "9:cjc079_1726"
    INDEX 01 01:43:45
  TRACK 61 AUDIO
    TITLE "0:"
    INDEX 01 01:44:72
  TRACK 62 AUDIO
    TITLE "10:cjc079_1727"
    INDEX 01 01:46:06
  TRACK 63 AUDIO
    TITLE "9:cjc079_1728"
    INDEX 01 01:48:58
  TRACK 64 AUDIO
    TITLE "0:"
    INDEX 01 01:50:15
  TRACK 65 AUDIO
    TITLE "10:cjc079_1729"
    INDEX 01 01:51:23
  TRACK 66 AUDIO
    TITLE "9:cjc079_1730"
    INDEX 01 01:53:63
  TRACK 67 AUDIO
    TITLE "0:"
    INDEX 01 01:55:03
  TRACK 68 AUDIO
    TITLE "10:cjc079_1731"
    INDEX 01 01:56:16
  TRACK 69 AUDIO
    TITLE "9:cjc079_1732"
    INDEX 01 01:58:66
  TRACK 70 AUDIO
    TITLE "0:"
    INDEX 01 02:00:31
  TRACK 71 AUDIO
    TITLE "10:cjc079_1733"
    INDEX 01 02:01:43
  TRACK 72 AUDIO
    TITLE "9:cjc079_1734"
    INDEX 01 02:04:12
  TRACK 73 AUDIO
    TITLE "0:"
    INDEX 01 02:05:31
  TRACK 74 AUDIO
    TITLE "10:cjc079_1735"
    INDEX 01 02:06:46
  TRACK 75 AUDIO
    TITLE "9:cjc079_1736"
    INDEX 01 02:09:15
  TRACK 76 AUDIO
    TITLE "0:"
    INDEX 01 02:10:36
  TRACK 77 AUDIO
    TITLE "10:cjc079_1737"
    INDEX 01 02:11:43
  TRACK 78 AUDIO
    TITLE "9:cjc079_1738"
    INDEX 01 02:14:28
  TRACK 79 AUDIO
    TITLE "0:"
    INDEX 01 02:15:41
  TRACK 80 AUDIO
    TITLE "10:cjc079_1739"
    INDEX 01 02:16:50
  TRACK 81 AUDIO
    TITLE "9:cjc079_1740"
    INDEX 01 02:19:29
  TRACK 82 AUDIO
    TITLE "0:"
    INDEX 01 02:21:12
  TRACK 83 AUDIO
    TITLE "10:cjc079_1741"
    INDEX 01 02:22:21
  TRACK 84 AUDIO
    TITLE "9:cjc079_1742"
    INDEX 01 02:25:08
  TRACK 85 AUDIO
    TITLE "0:"
    INDEX 01 02:26:48
  TRACK 86 AUDIO
    TITLE "10:cjc079_1743"
    INDEX 01 02:27:58
  TRACK 87 AUDIO
    TITLE "9:cjc079_1744"
    INDEX 01 02:30:42
  TRACK 88 AUDIO
    TITLE "0:"
    INDEX 01 02:32:12
  TRACK 89 AUDIO
    TITLE "10:cjc079_1745"
    INDEX 01 02:33:17
  TRACK 90 AUDIO
    TITLE "9:cjc079_1746"
    INDEX 01 02:35:51
  TRACK 91 AUDIO
    TITLE "0:"
    INDEX 01 02:37:09
  TRACK 92 AUDIO
    TITLE "10:cjc079_1747"
    INDEX 01 02:38:65
  TRACK 93 AUDIO
    TITLE "0:"
    INDEX 01 02:41:73
